<svg width="152" height="54" viewBox="0 0 152 54" fill="none" xmlns="http://www.w3.org/2000/svg">
<g filter="url(#filter0_d_149_296)">
<path d="M34.0554 29.1839H37.4001C37.4379 29.4295 37.556 29.6468 37.7544 29.8358C37.9622 30.0153 38.241 30.157 38.5905 30.261C38.9401 30.3555 39.3511 30.4027 39.8235 30.4027C40.4755 30.4027 40.981 30.3271 41.34 30.1759C41.7085 30.0248 41.8927 29.7933 41.8927 29.4815C41.8927 29.2642 41.7888 29.0894 41.5809 28.9571C41.3731 28.8154 40.9621 28.7209 40.3479 28.6737L38.4772 28.5178C36.9465 28.4044 35.8364 28.0737 35.1466 27.5257C34.4664 26.9683 34.1262 26.2218 34.1262 25.2865C34.1262 24.5212 34.3483 23.8834 34.7923 23.3732C35.2364 22.8535 35.8553 22.4614 36.6489 22.1969C37.4426 21.9323 38.378 21.8001 39.4551 21.8001C40.4944 21.8001 41.4156 21.9465 42.2187 22.2394C43.0312 22.5323 43.6737 22.948 44.1461 23.4866C44.628 24.0157 44.8925 24.6345 44.9398 25.3432H41.5951C41.5573 25.1353 41.4486 24.9558 41.2691 24.8046C41.0991 24.644 40.8534 24.5212 40.5322 24.4361C40.2109 24.3511 39.8283 24.3086 39.3842 24.3086C38.7984 24.3086 38.3307 24.3794 37.9811 24.5212C37.641 24.6629 37.4709 24.8755 37.4709 25.1589C37.4709 25.3668 37.5701 25.5368 37.7685 25.6691C37.9764 25.8014 38.3543 25.8912 38.9023 25.9384L40.9573 26.1085C41.9777 26.1841 42.7997 26.3447 43.4233 26.5903C44.0564 26.8265 44.5146 27.1525 44.7981 27.5682C45.0815 27.9745 45.2232 28.4894 45.2232 29.113C45.2232 29.8689 44.9965 30.535 44.5429 31.1113C44.0894 31.6782 43.4517 32.1223 42.6297 32.4435C41.8171 32.7553 40.8628 32.9112 39.7669 32.9112C38.6425 32.9112 37.6552 32.7553 36.8048 32.4435C35.9545 32.1317 35.2884 31.6971 34.8065 31.1397C34.3246 30.5728 34.0743 29.9208 34.0554 29.1839ZM49.7785 27.8517C49.7785 28.2957 49.8589 28.6737 50.0195 28.9855C50.1801 29.2973 50.421 29.5429 50.7423 29.7224C51.0635 29.8925 51.4651 29.9775 51.9469 29.9775C52.4477 29.9775 52.8587 29.8925 53.1799 29.7224C53.5012 29.5524 53.7374 29.3114 53.8885 28.9996C54.0492 28.6784 54.1295 28.2957 54.1295 27.8517V22.041H57.4316V28.0359C57.4316 29.0091 57.2049 29.8642 56.7514 30.6011C56.2978 31.3286 55.6601 31.8955 54.8381 32.3018C54.0161 32.7081 53.0524 32.9112 51.9469 32.9112C50.8604 32.9112 49.9061 32.7081 49.0841 32.3018C48.2621 31.8955 47.6196 31.3286 47.1567 30.6011C46.7031 29.8642 46.4764 29.0091 46.4764 28.0359V22.041H49.7785V27.8517ZM65.2235 22.041C66.1494 22.041 66.9431 22.1969 67.6044 22.5087C68.2753 22.8205 68.7855 23.2598 69.1351 23.8267C69.4846 24.3842 69.6594 25.0455 69.6594 25.8108C69.6594 26.5667 69.4846 27.2281 69.1351 27.795C68.7855 28.3619 68.2753 28.8012 67.6044 29.113C66.9431 29.4248 66.1494 29.5807 65.2235 29.5807H60.6741V26.973H65.0109C65.4266 26.973 65.7479 26.8691 65.9746 26.6612C66.2108 26.4533 66.3289 26.1699 66.3289 25.8108C66.3289 25.4329 66.2108 25.1447 65.9746 24.9463C65.7479 24.7479 65.4266 24.6487 65.0109 24.6487H60.9576L62.4457 23.1464V32.6703H59.1435V22.041H65.2235ZM70.8691 32.8262C70.5384 32.8262 70.236 32.7506 69.962 32.5994C69.688 32.4388 69.4707 32.2215 69.3101 31.9475C69.1589 31.6735 69.0833 31.3712 69.0833 31.0405C69.0833 30.7003 69.1589 30.398 69.3101 30.1334C69.4707 29.8594 69.688 29.6468 69.962 29.4957C70.236 29.335 70.5384 29.2547 70.8691 29.2547C71.2092 29.2547 71.5116 29.335 71.7761 29.4957C72.0501 29.6468 72.2627 29.8594 72.4139 30.1334C72.5745 30.398 72.6548 30.7003 72.6548 31.0405C72.6548 31.3712 72.5745 31.6735 72.4139 31.9475C72.2627 32.2215 72.0501 32.4388 71.7761 32.5994C71.5116 32.7506 71.2092 32.8262 70.8691 32.8262ZM84.6452 28.0784C84.6169 28.702 84.4893 29.3067 84.2625 29.8925C84.0358 30.4688 83.7051 30.9885 83.2705 31.4515C82.8359 31.905 82.2879 32.264 81.6265 32.5286C80.9651 32.7837 80.1903 32.9112 79.3022 32.9112C78.4708 32.9112 77.6913 32.7931 76.9638 32.5569C76.2362 32.3113 75.5938 31.9569 75.0363 31.494C74.4789 31.0216 74.0395 30.4405 73.7183 29.7508C73.4065 29.061 73.2506 28.2627 73.2506 27.3556C73.2506 26.4486 73.4065 25.6502 73.7183 24.9605C74.0395 24.2708 74.4836 23.6944 75.0505 23.2315C75.6268 22.7591 76.2882 22.4047 77.0346 22.1685C77.7905 21.9229 78.603 21.8001 79.4723 21.8001C80.6722 21.8001 81.7021 21.9796 82.5619 22.3386C83.4311 22.6976 84.1303 23.1937 84.6594 23.8267C85.1885 24.4597 85.5286 25.1873 85.6798 26.0093H82.3634C82.2784 25.6975 82.0989 25.4329 81.8249 25.2156C81.5603 24.9888 81.2297 24.8188 80.8328 24.7054C80.436 24.5826 79.9919 24.5212 79.5006 24.5212C78.8959 24.5212 78.3716 24.6251 77.9275 24.8329C77.4929 25.0408 77.1574 25.3526 76.9212 25.7683C76.685 26.1841 76.5669 26.7132 76.5669 27.3556C76.5669 27.9981 76.6945 28.5367 76.9496 28.9713C77.2141 29.4059 77.5873 29.7319 78.0692 29.9492C78.5605 30.1665 79.1369 30.2752 79.7982 30.2752C80.4407 30.2752 81.0076 30.1901 81.4989 30.02C81.9997 29.85 82.4012 29.5996 82.7036 29.2689C83.0059 28.9382 83.1854 28.5272 83.2421 28.0359L84.6452 28.0784ZM79.9967 29.0705V27.0155H85.779V32.6703H83.4689L82.987 28.5319L83.5964 29.0705H79.9967ZM96.702 26.1935V28.5178H88.808V26.1935H96.702ZM91.0614 27.3556L90.3953 31.4656L89.1056 30.0342H97.1981V32.6703H87.1215L87.9151 27.3556L87.1215 22.041H97.1272V24.6771H89.1056L90.3953 23.2456L91.0614 27.3556Z" fill="white"/>
<path fill-rule="evenodd" clip-rule="evenodd" d="M15.4453 23.7585C15.5004 23.7244 15.5576 23.6896 15.6171 23.6543C16.647 23.0425 18.1021 22.3957 19.983 21.74C23.7362 20.4316 28.8823 19.1907 35.0011 18.0968C47.22 15.9124 63.0243 14.3655 78.6674 13.9664C94.3346 13.5667 109.684 14.3229 121.045 16.6782C126.747 17.8601 131.253 19.4075 134.274 21.2835C137.283 23.1522 138.422 25.0691 138.422 26.9999H143.287C143.287 22.7045 140.582 19.4748 136.84 17.1507C133.11 14.8341 127.958 13.1429 122.033 11.9146C110.142 9.44953 94.3671 8.69941 78.5434 9.1031C62.6955 9.50741 46.6427 11.0736 34.1449 13.3079C27.9054 14.4233 22.4782 15.7181 18.3815 17.1462C16.3375 17.8588 14.5486 18.6305 13.1325 19.4717C11.7837 20.273 10.4563 21.3199 9.77416 22.7229L9 24.3153L11.2033 26.43V27H11.7971L11.9513 27.148L12.0934 27H16.0681V24.3563L15.4453 23.7585Z" fill="white"/>
<path fill-rule="evenodd" clip-rule="evenodd" d="M15.4389 30.2477C15.493 30.2816 15.5492 30.316 15.6077 30.3511C16.6256 30.9617 18.0633 31.6076 19.9221 32.2628C23.6315 33.5701 28.7176 34.8104 34.7701 35.904C46.8565 38.0878 62.5025 39.6346 78.0401 40.0336C93.6001 40.4332 108.9 39.6774 120.342 37.3212C126.081 36.1395 130.675 34.5892 133.824 32.6977C136.977 30.8038 138.294 28.8245 138.428 26.8369L143.282 27.1632C142.997 31.4019 140.156 34.5693 136.329 36.8681C132.498 39.1692 127.29 40.8576 121.324 42.0861C109.357 44.5501 93.6369 45.3007 77.9152 44.8969C62.1711 44.4925 46.2738 42.9262 33.9051 40.6914C27.7301 39.5756 22.3605 38.2803 18.3051 36.851C16.2815 36.1379 14.5094 35.3653 13.1051 34.5229C11.7653 33.7192 10.4527 32.6728 9.77416 31.2771L9 29.6847L11.2033 27.57V27H11.7971L11.9513 26.852L12.0934 27H16.0681V29.6438L15.4389 30.2477Z" fill="white"/>
<path d="M109.887 41.4612V13.3425H118.257L135.833 18.1629L141.692 26.1968L138.344 32.6239L128.301 38.2476L109.887 41.4612Z" fill="white"/>
</g>
<defs>
<filter id="filter0_d_149_296" x="0.40859" y="0.40859" width="151.47" height="53.1828" filterUnits="userSpaceOnUse" color-interpolation-filters="sRGB">
<feFlood flood-opacity="0" result="BackgroundImageFix"/>
<feColorMatrix in="SourceAlpha" type="matrix" values="0 0 0 0 0 0 0 0 0 0 0 0 0 0 0 0 0 0 127 0" result="hardAlpha"/>
<feOffset/>
<feGaussianBlur stdDeviation="4.2957"/>
<feComposite in2="hardAlpha" operator="out"/>
<feColorMatrix type="matrix" values="0 0 0 0 0 0 0 0 0 0 0 0 0 0 0 0 0 0 0.2 0"/>
<feBlend mode="normal" in2="BackgroundImageFix" result="effect1_dropShadow_149_296"/>
<feBlend mode="normal" in="SourceGraphic" in2="effect1_dropShadow_149_296" result="shape"/>
</filter>
</defs>
</svg>
