<svg width="29" height="28" viewBox="0 0 29 28" fill="none" xmlns="http://www.w3.org/2000/svg">
<path d="M14.0021 2.52234C17.7384 2.52234 18.1813 2.53464 19.6578 2.60436C21.0236 2.66589 21.7659 2.89556 22.2581 3.08833C22.9102 3.34261 23.3778 3.64611 23.8658 4.13417C24.3539 4.62224 24.6574 5.08979 24.9117 5.74191C25.1044 6.23407 25.33 6.97642 25.3956 8.34217C25.4613 9.81866 25.4777 10.2616 25.4777 13.9979C25.4777 17.7343 25.4654 18.1772 25.3956 19.6537C25.3341 21.0195 25.1044 21.7618 24.9117 22.254C24.6574 22.9061 24.3539 23.3737 23.8658 23.8617C23.3778 24.3498 22.9102 24.6533 22.2581 24.9076C21.7659 25.1003 21.0236 25.3259 19.6578 25.3915C18.1813 25.4572 17.7384 25.4736 14.0021 25.4736C10.2657 25.4736 9.82276 25.4613 8.34627 25.3915C6.98052 25.33 6.23817 25.1003 5.74601 24.9076C5.09389 24.6533 4.62634 24.3498 4.13827 23.8617C3.65021 23.3737 3.34671 22.9061 3.09243 22.254C2.89966 21.7618 2.67409 21.0195 2.60847 19.6537C2.54284 18.1772 2.52644 17.7343 2.52644 13.9979C2.52644 10.2616 2.53874 9.81866 2.60847 8.34217C2.66999 6.97642 2.89966 6.23407 3.09243 5.74191C3.34671 5.08979 3.65021 4.62224 4.13827 4.13417C4.62634 3.64611 5.09389 3.34261 5.74601 3.08833C6.23817 2.89556 6.98052 2.66999 8.34627 2.60436C9.82276 2.53464 10.2657 2.52234 14.0021 2.52234ZM14.0021 0C10.2001 0 9.72433 0.0164057 8.23143 0.0861289C6.74264 0.155852 5.7255 0.389629 4.8314 0.738245C3.9127 1.09096 3.12934 1.57082 2.35418 2.35008C1.57492 3.12934 1.09917 3.9086 0.738245 4.8314C0.393731 5.7214 0.155851 6.73854 0.0861282 8.23143C0.0164051 9.72433 0 10.2001 0 14.0021C0 17.804 0.0164051 18.2798 0.0861282 19.7727C0.155851 21.2615 0.389629 22.2786 0.738245 23.1727C1.09506 24.0873 1.57492 24.8707 2.35418 25.6458C3.13344 26.4251 3.9127 26.9008 4.83551 27.2618C5.7255 27.6063 6.74264 27.8441 8.23554 27.9139C9.72843 27.9836 10.2042 28 14.0062 28C17.8081 28 18.2839 27.9836 19.7768 27.9139C21.2656 27.8441 22.2827 27.6104 23.1768 27.2618C24.0914 26.9049 24.8748 26.4251 25.6499 25.6458C26.4292 24.8666 26.9049 24.0873 27.2659 23.1645C27.6104 22.2745 27.8482 21.2574 27.918 19.7645C27.9877 18.2716 28.0041 17.7958 28.0041 13.9938C28.0041 10.1919 27.9877 9.71613 27.918 8.22323C27.8482 6.73444 27.6145 5.7173 27.2659 4.8232C26.909 3.9086 26.4292 3.12524 25.6499 2.35008C24.8707 1.57082 24.0914 1.09506 23.1686 0.734144C22.2786 0.38963 21.2615 0.15175 19.7686 0.0820272C18.2798 0.0164054 17.804 0 14.0021 0Z" fill="#393939"/>
<path d="M14.0019 6.80811C10.0318 6.80811 6.81226 10.0277 6.81226 13.9978C6.81226 17.9679 10.0318 21.1875 14.0019 21.1875C17.9721 21.1875 21.1916 17.9679 21.1916 13.9978C21.1916 10.0277 17.9721 6.80811 14.0019 6.80811ZM14.0019 18.6651C11.4263 18.6651 9.33459 16.5775 9.33459 13.9978C9.33459 11.418 11.4263 9.33044 14.0019 9.33044C16.5776 9.33044 18.6693 11.418 18.6693 13.9978C18.6693 16.5775 16.5776 18.6651 14.0019 18.6651Z" fill="#393939"/>
<path d="M21.4748 8.20675C22.4035 8.20675 23.1563 7.45389 23.1563 6.52519C23.1563 5.59649 22.4035 4.84363 21.4748 4.84363C20.5461 4.84363 19.7932 5.59649 19.7932 6.52519C19.7932 7.45389 20.5461 8.20675 21.4748 8.20675Z" fill="#393939"/>
</svg>
