<svg width="26" height="25" viewBox="0 0 26 25" fill="none" xmlns="http://www.w3.org/2000/svg">
<path fill-rule="evenodd" clip-rule="evenodd" d="M24.6863 17.1978C24.0473 16.8783 20.8992 15.3276 20.3147 15.1172C19.7303 14.9068 19.3017 14.7977 18.8731 15.4367C18.4446 16.0757 17.2212 17.5173 16.8471 17.9459C16.4731 18.3744 16.0991 18.429 15.4601 18.1095C14.8211 17.79 12.7561 17.1121 10.3171 14.9302C8.41577 13.2315 7.13003 11.1353 6.756 10.4963C6.38196 9.85737 6.71703 9.50671 7.03652 9.18722C7.32484 8.8989 7.6755 8.43915 7.99498 8.06512C8.31447 7.69108 8.42356 7.42614 8.63396 6.99756C8.84435 6.56898 8.74305 6.19494 8.57941 5.87546C8.41577 5.55597 7.13782 2.40785 6.60794 1.1221C6.08585 -0.124678 5.56376 0.0467535 5.16635 0.0233764C4.79231 0.00779162 4.36373 0 3.94294 0C3.51436 0 2.82084 0.163639 2.23642 0.802614C1.65199 1.44159 0 2.99227 0 6.1404C0 9.28852 2.29096 12.3353 2.61045 12.7561C2.92994 13.1847 7.12223 19.6446 13.5432 22.4187C15.0705 23.081 16.2627 23.4707 17.19 23.7668C18.7251 24.2577 20.1199 24.1876 21.2187 24.0239C22.4498 23.8369 25.0058 22.4732 25.5356 20.9849C26.0655 19.4888 26.0655 18.2108 25.9097 17.9459C25.7538 17.6809 25.3252 17.5251 24.6863 17.1978Z" fill="#393939"/>
</svg>
