<svg width="28" height="28" viewBox="0 0 28 28" fill="none" xmlns="http://www.w3.org/2000/svg">
<path d="M27 14C27 21.1797 21.1797 27 14 27C6.8203 27 1 21.1797 1 14C1 6.8203 6.8203 1 14 1C21.1797 1 27 6.8203 27 14Z" stroke="#393939" stroke-width="2"/>
<path fill-rule="evenodd" clip-rule="evenodd" d="M21.5239 7.43624L18.7644 21.3548C18.7644 21.3548 18.3779 22.3209 17.3151 21.856L13.2984 18.7758L13.3841 18.8429L10.8661 21.1436C10.8661 21.1436 10.6669 21.2945 10.4555 21.1979L10.5893 20.0152L10.9627 16.8569C10.9627 16.8569 18.0277 10.5044 18.3175 10.2327C18.6074 9.96703 18.5107 9.90664 18.5107 9.90664C18.5349 9.58057 17.9914 9.90664 17.9914 9.90664L8.62648 15.8541L8.62587 15.8538L4.72506 14.5434C4.72506 14.5434 4.12726 14.3321 4.06687 13.8671C4.00649 13.4022 4.74318 13.1546 4.74318 13.1546L20.2498 7.07393C20.2498 7.0679 21.5239 6.50632 21.5239 7.43624Z" fill="#393939"/>
</svg>
