<svg width="28" height="28" viewBox="0 0 28 28" fill="none" xmlns="http://www.w3.org/2000/svg">
<path fill-rule="evenodd" clip-rule="evenodd" d="M23.8034 4.06996C21.1858 1.44813 17.6984 0.00422195 13.9873 0C6.34137 0 0.113993 6.22316 0.113993 13.8733C0.113993 16.3179 0.751507 18.7075 1.96743 20.81L0 28L7.35464 26.0706C9.38118 27.1767 11.661 27.7593 13.9831 27.7593H13.9873C21.6333 27.7593 27.8565 21.5362 27.8607 13.886C27.8649 10.1791 26.4252 6.6918 23.8034 4.06996ZM13.9916 25.4162H13.9873C11.9186 25.4162 9.88782 24.8589 8.11882 23.8076L7.69662 23.5585L3.33112 24.7027L4.49638 20.4469L4.22195 20.0121C3.06936 18.1755 2.45718 16.0561 2.45718 13.8733C2.4614 7.51508 7.63329 2.34318 13.9958 2.34318C17.0778 2.34318 19.9698 3.54644 22.1484 5.72497C24.3269 7.9035 25.5259 10.804 25.5217 13.8818C25.5217 20.2443 20.3456 25.4162 13.9916 25.4162ZM20.316 16.778C19.9698 16.6049 18.2642 15.7648 17.9475 15.6508C17.6309 15.5368 17.3987 15.4777 17.1665 15.8239C16.9343 16.1701 16.2714 16.9511 16.0688 17.1834C15.8661 17.4156 15.6634 17.4451 15.3172 17.272C14.971 17.0989 13.8522 16.7316 12.5308 15.5495C11.5006 14.6291 10.804 13.4934 10.6013 13.1472C10.3987 12.801 10.5802 12.611 10.7533 12.4379C10.9095 12.2817 11.0995 12.0326 11.2726 11.8299C11.4457 11.6273 11.5048 11.4837 11.6188 11.2515C11.7328 11.0193 11.6779 10.8166 11.5893 10.6435C11.5006 10.4704 10.8082 8.76478 10.5211 8.06815C10.2382 7.39264 9.95537 7.48552 9.74005 7.47286C9.53739 7.46441 9.30519 7.46019 9.0772 7.46019C8.84499 7.46019 8.46924 7.54885 8.15259 7.89505C7.83595 8.24125 6.94089 9.08142 6.94089 10.7871C6.94089 12.4928 8.18215 14.1435 8.35525 14.3715C8.52835 14.6037 10.7998 18.1037 14.2786 19.6068C15.1061 19.9656 15.7521 20.1767 16.2545 20.3372C17.0862 20.6031 17.842 20.5651 18.4373 20.4765C19.1043 20.3752 20.4891 19.6363 20.7762 18.8299C21.0633 18.0193 21.0633 17.3269 20.9789 17.1834C20.8944 17.0398 20.6622 16.9554 20.316 16.778Z" fill="#393939"/>
</svg>
