<svg width="28" height="28" viewBox="0 0 28 28" fill="none" xmlns="http://www.w3.org/2000/svg">
<path fill-rule="evenodd" clip-rule="evenodd" d="M23.8034 4.07009C21.1858 1.44825 17.6984 0.00434402 13.9873 0.00012207C6.34137 0.00012207 0.113993 6.22328 0.113993 13.8735C0.113993 16.318 0.751507 18.7076 1.96743 20.8101L0 28.0001L7.35464 26.0707C9.38118 27.1768 11.661 27.7595 13.9831 27.7595H13.9873C21.6333 27.7595 27.8565 21.5363 27.8607 13.8861C27.8649 10.1793 26.4252 6.69192 23.8034 4.07009ZM13.9916 25.4163H13.9873C11.9186 25.4163 9.88782 24.859 8.11882 23.8077L7.69662 23.5586L3.33112 24.7028L4.49638 20.447L4.22195 20.0122C3.06936 18.1756 2.45718 16.0562 2.45718 13.8735C2.4614 7.5152 7.63329 2.34331 13.9958 2.34331C17.0778 2.34331 19.9698 3.54656 22.1484 5.72509C24.3269 7.90362 25.5259 10.8041 25.5217 13.8819C25.5217 20.2444 20.3456 25.4163 13.9916 25.4163ZM20.316 16.7782C19.9698 16.6051 18.2642 15.7649 17.9475 15.6509C17.6309 15.5369 17.3987 15.4778 17.1665 15.824C16.9343 16.1702 16.2714 16.9513 16.0688 17.1835C15.8661 17.4157 15.6634 17.4452 15.3172 17.2721C14.971 17.099 13.8522 16.7317 12.5308 15.5496C11.5006 14.6292 10.804 13.4935 10.6013 13.1473C10.3987 12.8011 10.5802 12.6111 10.7533 12.438C10.9095 12.2818 11.0995 12.0327 11.2726 11.83C11.4457 11.6274 11.5048 11.4838 11.6188 11.2516C11.7328 11.0194 11.6779 10.8168 11.5893 10.6437C11.5006 10.4706 10.8082 8.7649 10.5211 8.06828C10.2382 7.39276 9.95537 7.48565 9.74005 7.47298C9.53739 7.46454 9.30519 7.46032 9.0772 7.46032C8.84499 7.46032 8.46924 7.54898 8.15259 7.89518C7.83595 8.24138 6.94089 9.08154 6.94089 10.7872C6.94089 12.4929 8.18215 14.1437 8.35525 14.3717C8.52835 14.6039 10.7998 18.1039 14.2786 19.6069C15.1061 19.9657 15.7521 20.1768 16.2545 20.3373C17.0862 20.6033 17.842 20.5653 18.4373 20.4766C19.1043 20.3753 20.4891 19.6364 20.7762 18.83C21.0633 18.0194 21.0633 17.327 20.9789 17.1835C20.8944 17.0399 20.6622 16.9555 20.316 16.7782Z" fill="#393939"/>
</svg>
